<svg width="299" height="61" viewBox="0 0 299 61" fill="none" xmlns="http://www.w3.org/2000/svg">
<path d="M87.6608 7.35728H98.4214L115.83 55.3573H105.789L102.911 47.403H83.1715L80.2929 55.3573H70.252L87.6608 7.35728ZM86.6327 37.9401H99.4494L93.0068 20.3516L86.6327 37.9401Z" fill="#181818"/>
<path d="M153.222 55.3573H142.325L135.06 42.843L130.879 47.8144V55.3573H121.42V3.92871H130.879V33.1059L140.954 21.0716H153.291L141.536 35.163L153.222 55.3573Z" fill="#181818"/>
<path d="M167.402 55.9744C165.643 55.8373 163.953 55.4716 162.33 54.8773C160.708 54.2601 159.258 53.4373 157.978 52.4087C156.722 51.3573 155.739 50.1001 155.031 48.6373L162.982 45.2087C163.233 45.5744 163.61 45.9744 164.112 46.4087C164.615 46.8201 165.221 47.1859 165.929 47.5059C166.66 47.8259 167.505 47.9859 168.465 47.9859C169.173 47.9859 169.858 47.9059 170.521 47.7459C171.183 47.563 171.72 47.2773 172.131 46.8887C172.543 46.4773 172.748 45.9401 172.748 45.2773C172.748 44.5459 172.486 43.9859 171.96 43.5973C171.435 43.2087 170.795 42.923 170.041 42.7401C169.31 42.5344 168.602 42.363 167.916 42.2259C165.815 41.8601 163.827 41.2087 161.953 40.2716C160.103 39.3116 158.595 38.0773 157.43 36.5687C156.265 35.0601 155.682 33.2544 155.682 31.1516C155.682 28.843 156.288 26.8544 157.498 25.1859C158.709 23.4944 160.286 22.1916 162.228 21.2773C164.17 20.363 166.271 19.9059 168.533 19.9059C171.206 19.9059 173.685 20.4659 175.97 21.5859C178.254 22.7059 180.093 24.283 181.487 26.3173L174.016 30.7401C173.719 30.3059 173.331 29.8944 172.851 29.5059C172.394 29.0944 171.857 28.7516 171.24 28.4773C170.646 28.1801 170.007 28.0087 169.321 27.963C168.43 27.8944 167.619 27.9516 166.888 28.1344C166.157 28.2944 165.575 28.603 165.141 29.0601C164.729 29.5173 164.524 30.1344 164.524 30.9116C164.524 31.6659 164.855 32.2259 165.518 32.5916C166.18 32.9344 166.945 33.1973 167.814 33.3801C168.682 33.5401 169.447 33.7344 170.11 33.963C172.097 34.603 173.959 35.4259 175.696 36.4316C177.455 37.4144 178.871 38.6259 179.945 40.0659C181.019 41.5059 181.521 43.1973 181.453 45.1401C181.453 47.403 180.779 49.3916 179.431 51.1059C178.083 52.7973 176.335 54.0887 174.188 54.9801C172.063 55.8487 169.801 56.1801 167.402 55.9744Z" fill="#181818"/>
<path d="M219.118 33.5516V55.3573H209.66V36.1573C209.66 34.9459 209.363 33.8601 208.769 32.9001C208.197 31.9173 207.421 31.1401 206.438 30.5687C205.479 29.9973 204.405 29.7116 203.217 29.7116C202.029 29.7116 200.944 29.9973 199.961 30.5687C198.979 31.1401 198.202 31.9173 197.631 32.9001C197.06 33.8601 196.774 34.9459 196.774 36.1573V55.3573H187.316L187.282 3.92871H196.74L196.774 23.6087C197.917 22.5116 199.253 21.6544 200.784 21.0373C202.337 20.4201 203.971 20.1116 205.684 20.1116C208.175 20.1116 210.425 20.7173 212.435 21.9287C214.469 23.1401 216.091 24.763 217.302 26.7973C218.513 28.8087 219.118 31.0601 219.118 33.5516Z" fill="#181818"/>
<path d="M250.453 21.0716H259.911V55.3573H250.419L249.973 51.7916C249.082 53.1173 247.94 54.1916 246.546 55.0144C245.153 55.8373 243.519 56.2487 241.646 56.2487C239.087 56.2487 236.7 55.7687 234.483 54.8087C232.267 53.8487 230.314 52.523 228.623 50.8316C226.933 49.1401 225.608 47.1859 224.648 44.9687C223.711 42.7287 223.243 40.3287 223.243 37.7687C223.243 35.323 223.689 33.0373 224.58 30.9116C225.471 28.7859 226.727 26.9116 228.349 25.2887C229.971 23.6659 231.833 22.3973 233.935 21.483C236.06 20.5687 238.344 20.1116 240.789 20.1116C242.891 20.1116 244.776 20.5573 246.443 21.4487C248.134 22.3401 249.608 23.4716 250.864 24.843L250.453 21.0716ZM241.406 47.163C242.959 47.163 244.364 46.763 245.621 45.963C246.878 45.163 247.871 44.0887 248.602 42.7401C249.334 41.3687 249.699 39.8601 249.699 38.2144C249.699 36.5459 249.334 35.0373 248.602 33.6887C247.871 32.3401 246.878 31.2659 245.621 30.4659C244.364 29.6659 242.959 29.2659 241.406 29.2659C239.829 29.2659 238.402 29.6659 237.122 30.4659C235.843 31.2659 234.826 32.3516 234.072 33.723C233.318 35.0716 232.941 36.5687 232.941 38.2144C232.941 39.8601 233.318 41.3687 234.072 42.7401C234.849 44.0887 235.877 45.163 237.156 45.963C238.436 46.763 239.852 47.163 241.406 47.163Z" fill="#181818"/>
<path d="M298.634 33.5516V55.3573H289.175V36.1573C289.175 34.9459 288.878 33.8601 288.284 32.9001C287.713 31.9173 286.936 31.1401 285.954 30.5687C284.994 29.9973 283.921 29.7116 282.733 29.7116C281.545 29.7116 280.459 29.9973 279.477 30.5687C278.495 31.1401 277.718 31.9173 277.147 32.9001C276.576 33.8601 276.29 34.9459 276.29 36.1573V55.3573H266.832L266.797 21.0716H276.256L276.29 23.6087C277.432 22.5116 278.769 21.6544 280.299 21.0373C281.853 20.4201 283.486 20.1116 285.2 20.1116C287.69 20.1116 289.941 20.7173 291.951 21.9287C293.984 23.1401 295.606 24.763 296.817 26.7973C298.028 28.8087 298.634 31.0601 298.634 33.5516Z" fill="#181818"/>
<path fill-rule="evenodd" clip-rule="evenodd" d="M0 31.1529L0.00291537 30.8523L0.00892727 30.5516L0.0180512 30.2508L0.0302716 29.9501L0.0456188 29.6493L0.0640626 29.3486L0.0856334 29.048L0.110301 28.7474L0.138095 28.4469L0.169001 28.1465L0.203019 27.8465L0.240133 27.5465L0.280374 27.2468L0.323727 26.9474L0.370177 26.6483L0.419738 26.3496L0.472412 26.0511L0.528166 25.7533L0.587032 25.4556L0.648996 25.1585L0.714055 24.8618L0.782182 24.5657L0.853419 24.2702L0.927708 23.9752L1.00509 23.6808L1.08553 23.387L1.16905 23.0939L1.25562 22.8015L1.34524 22.5099L1.4379 22.2191L1.53361 21.929L1.63235 21.6396L1.73412 21.3512L1.83889 21.0636L1.94668 20.777L2.05747 20.4912L2.17126 20.2065L2.28802 19.9227L2.40777 19.6401L2.53047 19.3584L2.65613 19.0778L2.78474 18.7983L2.91628 18.5201L3.05075 18.2429L3.18814 17.9669L3.32842 17.6922L3.47159 17.4188L3.61765 17.1465L3.76656 16.8758L3.91832 16.6063L4.07294 16.338L4.23037 16.0713L4.39063 15.806L4.55368 15.5421L4.71952 15.2798L4.88813 15.0189L5.0595 14.7597L5.23363 14.5019L5.41047 14.2458L5.59003 13.9913L5.77227 13.7384L5.9572 13.4873L6.14479 13.2377L6.33503 12.99L6.52792 12.744L6.7234 12.4998L6.92148 12.2574L7.12214 12.0168L7.32535 11.7781L7.53112 11.5412L7.73941 11.3063L7.9502 11.0734L8.16347 10.8424L8.37922 10.6133L8.59741 10.3863L8.81803 10.1613L9.04104 9.93843L9.26645 9.7176L9.49423 9.49889L9.72434 9.2823L9.95679 9.06789L10.1915 8.85564L10.4286 8.64561L10.6678 8.4378L10.9094 8.23223L11.1531 8.02895L11.399 7.82796L11.6471 7.62929L11.8973 7.43295L12.1497 7.23897L12.4041 7.04739L12.6607 6.8582L12.9193 6.67145L13.1799 6.48714L13.4424 6.3053L13.7071 6.12594L13.9736 5.94908L14.242 5.77476L14.5124 5.60298L14.7847 5.43378L15.0587 5.26717L15.3347 5.10314L15.6124 4.94176L15.8918 4.78301L16.1731 4.62692L16.456 4.47352L16.7406 4.32279L17.0268 4.17481L17.3148 4.02953L17.6043 3.88701L17.8954 3.74726L18.1882 3.61028L18.4823 3.4761L18.778 3.34475L19.0752 3.21621L19.3738 3.09053L19.6738 2.96771L19.9751 2.84775L20.2779 2.73068L20.5819 2.61653L20.8872 2.50527L21.1939 2.39698L21.5017 2.2916L21.8108 2.18918L22.1209 2.08974L22.4322 1.99328L22.7448 1.89981L23.0583 1.80937L23.3728 1.72193L23.6885 1.63751L24.0052 1.55614L24.3227 1.47782L24.6411 1.40258L24.9606 1.33039L25.2808 1.26129L25.6018 1.19528L25.9237 1.13237L26.2464 1.07258L26.5698 1.01589L26.894 0.962345L27.2187 0.91193L27.5441 0.86465L27.8701 0.820535L28.1967 0.77957L28.5238 0.74177L28.8515 0.70712L29.1796 0.67568L29.5081 0.647405L29.8371 0.62231L30.1664 0.600425L31.9374 0.5L32.0385 8.97301L32.0963 8.97234L32.3409 8.972L32.5854 8.97404L32.83 8.97846L33.0748 8.98529L33.3196 8.9945L33.5644 9.00608L33.8093 9.02007L34.0541 9.03647L34.2988 9.05523L34.5437 9.07641L34.7883 9.09999L35.0328 9.12597L35.2771 9.15434L35.5213 9.1851L35.7653 9.21827L36.0091 9.25382L36.2526 9.29178L36.496 9.33213L36.7388 9.37487L36.9816 9.42L37.2239 9.46752L37.4657 9.51744L37.7074 9.56973L37.9485 9.62441L38.1891 9.68145L38.4295 9.74088L38.6692 9.8027L38.9083 9.86687L39.147 9.93341L39.3852 10.0023L39.6227 10.0736L39.8595 10.1472L40.0958 10.2231L40.3314 10.3014L40.5663 10.382L40.8004 10.465L41.034 10.5503L41.2666 10.6379L41.4985 10.7278L41.7296 10.82L41.9598 10.9146L42.1891 11.0114L42.4176 11.1105L42.6453 11.2119L42.8719 11.3155L43.0975 11.4214L43.3223 11.5296L43.546 11.64L43.7687 11.7527L43.9903 11.8675L44.2108 11.9846L44.4303 12.1039L44.6486 12.2254L44.8658 12.3491L45.0818 12.475L45.2966 12.603L45.5102 12.7333L45.7226 12.8655L45.9336 13.0001L46.1434 13.1366L46.3519 13.2753L46.5591 13.4162L46.7649 13.559L46.9694 13.7041L47.1724 13.851L47.3739 14.0001L47.5742 14.1513L47.7729 14.3045L47.9701 14.4598L48.1658 14.6168L48.36 14.7759L48.5526 14.9372L48.7437 15.1002L48.9333 15.2652L49.1212 15.4322L49.3073 15.6011L49.4919 15.7719L49.6748 15.9446L49.8561 16.119L50.0355 16.2954L50.2133 16.4736L50.3893 16.6538L50.5636 16.8356L50.736 17.0192L50.9067 17.2046L51.0754 17.3918L51.2423 17.5807L51.4074 17.7713L51.5705 17.9636L51.7319 18.1575L51.8912 18.3533L52.0486 18.5505L52.2041 18.7494L52.3576 18.95L52.5091 19.1522L52.6585 19.3559L52.8059 19.5612L52.9512 19.7681L53.0945 19.9763L53.2358 20.1861L53.3749 20.3975L53.5119 20.6103L53.6467 20.8245L53.7794 21.0401L53.91 21.2571L54.0383 21.4755L54.1645 21.6953L54.2885 21.9164L54.4102 22.1388L54.5297 22.3625L54.647 22.5875L54.7619 22.8137L54.8746 23.0411L54.985 23.2698L55.0932 23.4996L55.1989 23.7306L55.3024 23.9628L55.4034 24.1961L55.5021 24.4305L55.5984 24.6659L55.6924 24.9024L55.784 25.1399L55.8731 25.3785L55.9598 25.618L56.0441 25.8585L56.1259 26.0999L56.2054 26.3423L56.2823 26.5854L56.3568 26.8295L56.4287 27.0744L56.4981 27.3201L56.5651 27.5667L56.6296 27.8141L56.6913 28.062L56.7509 28.3109L56.8077 28.5603L56.8619 28.8105L56.9137 29.0612L56.9628 29.3127L57.0093 29.5647L57.0534 29.8174L57.0948 30.0704L57.1336 30.324L57.1699 30.5783L57.2034 30.8328L57.2344 31.088L57.2628 31.3434L57.2885 31.5993L57.3116 31.8555L57.3321 32.1122L57.3499 32.3691L57.365 32.6264L57.3776 32.8838L57.3876 33.1417L57.3947 33.3995L57.3993 33.6576L57.4011 33.9159L57.4004 34.1744L57.3969 34.433L57.3907 34.6917L57.382 34.9503L57.3705 35.2091L57.3564 35.4678L57.3395 35.7266L57.32 35.9853L57.2978 36.2439L57.2729 36.5025L57.2454 36.761L57.215 37.0191L57.1821 37.2773L57.1466 37.5351L57.1082 37.7929L57.0673 38.0503L57.0237 38.3074L56.9773 38.5641L56.9283 38.8206L56.8767 39.0768L56.8223 39.3326L56.7652 39.5879L56.7055 39.8429L56.6433 40.0973L56.5782 40.3512L56.5105 40.6046L56.4403 40.8575L56.3673 41.1098L56.2918 41.3615L56.2135 41.6127L56.1326 41.8631L56.0492 42.113L55.9631 42.362L55.8743 42.6104L55.783 42.858L55.6891 43.1048L55.5926 43.3508L55.4935 43.596L55.3918 43.8404L55.2876 44.0838L55.1808 44.3265L55.0714 44.568L54.9595 44.8088L54.845 45.0485L54.7281 45.2872L54.6084 45.5249L54.4865 45.7614L54.3619 45.9971L54.235 46.2314L54.1054 46.4648L53.9735 46.6968L53.8391 46.9278L53.7023 47.1576L53.563 47.3861L53.4213 47.6135L53.277 47.8394L53.1305 48.0641L52.9817 48.2874L52.8304 48.5095L52.6767 48.7301L52.5207 48.9494L52.3624 49.1672L52.2017 49.3836L52.0387 49.5986L51.8734 49.812L51.7059 50.0238L51.5361 50.2343L51.3641 50.4431L51.1897 50.6502L51.0132 50.8559L50.8345 51.0599L50.6535 51.2622L50.4704 51.4629L50.2852 51.662L50.0979 51.8592L49.9083 52.0548L49.7168 52.2485L49.523 52.4405L49.3272 52.6307L49.1295 52.8191L48.9296 53.0057L48.7278 53.1903L48.5239 53.3732L48.318 53.5539L48.1103 53.7329L47.9005 53.91L47.6889 54.0851L47.4753 54.258L47.2599 54.4292L47.0425 54.5982L46.8233 54.7652L46.6023 54.93L46.3795 55.0929L46.1551 55.2537L45.9286 55.4123L45.7005 55.5689L45.4708 55.7232L45.2394 55.8753L45.0061 56.0253L44.7714 56.1732L44.535 56.3187L44.2969 56.4622L44.0572 56.6031L43.816 56.7421L43.5734 56.8785L43.329 57.0126L43.0833 57.1446L42.8361 57.2741L42.5874 57.4013L42.3373 57.5263L42.0858 57.6486L41.8329 57.7686L41.5787 57.8864L41.3231 58.0016L41.0663 58.1144L40.8081 58.2246L40.5488 58.3325L40.2882 58.438L40.0264 58.5408L39.7634 58.6412L39.4992 58.7391L39.234 58.8344L38.9675 58.9272L38.7002 59.0174L38.4317 59.1051L38.1621 59.1902L37.8916 59.2727L37.6201 59.3526L37.3478 59.4299L37.0743 59.5046L36.8002 59.5767L36.525 59.646L36.2491 59.7128L35.9724 59.777L35.6948 59.8383L35.4165 59.8971L35.1375 59.9532L34.8578 60.0066L34.5774 60.0573L34.2964 60.1052L34.0147 60.1505L33.7325 60.1931L33.4496 60.2328L33.1664 60.2699L32.8825 60.3042L32.5981 60.3357L32.3134 60.3645L32.0282 60.3906L31.7427 60.4139L31.4567 60.4344L31.1705 60.4521L30.8838 60.4671L30.5969 60.4793L30.3099 60.4886L30.0225 60.4952L29.735 60.4989L29.4472 60.5L29.1595 60.4982L28.8716 60.4935L28.5835 60.4862L28.2954 60.4758L28.0074 60.4628L27.7193 60.447L27.4314 60.4283L27.1433 60.4068L26.8556 60.3825L26.5678 60.3554L26.2802 60.3256L25.9929 60.2928L25.7057 60.2573L25.4187 60.2189L25.1322 60.1776L24.8458 60.1337L24.5598 60.0869L24.2742 60.0374L23.9888 59.9849L23.7041 59.9297L23.4197 59.8718L23.1358 59.8109L22.8523 59.7473L22.5695 59.681L22.2872 59.6118L22.0055 59.5398L21.7244 59.4651L21.444 59.3877L21.1643 59.3075L20.8851 59.2245L20.6069 59.1387L20.3294 59.0502L20.0526 58.959L19.7767 58.865L19.5016 58.7682L19.2274 58.6689L18.9542 58.5668L18.6818 58.4619L18.4105 58.3544L18.1401 58.2441L17.8708 58.1312L17.6025 58.0157L17.3353 57.8975L17.0691 57.7766L16.8042 57.653L16.5404 57.5268L16.2779 57.398L16.0164 57.2666L15.7563 57.1326L15.4976 56.996L15.2399 56.8569L14.9837 56.7152L14.7288 56.5709L14.4754 56.424L14.2233 56.2746L13.9726 56.1228L13.7234 55.9683L13.4757 55.8116L13.2296 55.6521L12.9849 55.4904L12.7418 55.326L12.5005 55.1594L12.2606 54.9903L12.0224 54.8187L11.7859 54.6449L11.551 54.4685L11.3179 54.2898L11.0866 54.1089L10.857 53.9255L10.6292 53.7399L10.4032 53.552L10.1791 53.3618L9.95688 53.1693L9.73653 52.9745L9.51811 52.7775L9.30163 52.5785L9.0871 52.377L8.87458 52.1736L8.66407 51.9678L8.45558 51.7601L8.24916 51.5502L8.04483 51.3382L7.8426 51.1241L7.6425 50.9079L7.44455 50.6897L7.24877 50.4695L7.05517 50.2474L6.8638 50.0231L6.67467 49.797L6.48779 49.5689L6.30319 49.3389L6.1209 49.107L5.94091 48.8733L5.76327 48.6377L5.58799 48.4002L5.41509 48.161L5.24458 47.9199L5.0765 47.6772L4.91085 47.4328L4.74766 47.1864L4.58696 46.9386L4.42873 46.6891L4.27302 46.4378L4.11985 46.185L3.96921 45.9305L3.82116 45.6746L3.67568 45.417L3.5328 45.158L3.39254 44.8973L3.2549 44.6352L3.11993 44.3718L2.98761 44.1069L2.85799 43.8407L2.73106 43.5729L2.60683 43.304L2.48533 43.0335L2.36657 42.762L2.25058 42.489L2.13736 42.215L2.02691 41.9396L1.91927 41.663L1.81445 41.3853L1.71244 41.1065L1.61327 40.8266L1.51695 40.5456L1.42349 40.2635L1.33292 39.9804L1.24521 39.6963L1.16042 39.4114L1.07854 39.1253L0.999565 38.8383L0.923524 38.5506L0.850428 38.262L0.780278 37.9725L0.713104 37.6823L0.64889 37.3911L0.587652 37.0994L0.529405 36.8069L0.474149 36.5138L0.421898 36.2199L0.37267 35.9255L0.326446 35.6304L0.28326 35.3348L0.243109 35.0385L0.20601 34.7418L0.171947 34.4447L0.140935 34.1471L0.11299 33.8492L0.0881108 33.5507L0.0662983 33.2519L0.0475676 32.9528L0.0319182 32.6534L0.0193502 32.3537L0.009864 32.0538L0.00347432 31.7537L0.000196279 31.4534L0 31.1529ZM29.2717 9.15048L29.2028 3.37519L29.1374 3.38145L28.8371 3.41319L28.5376 3.44781L28.2382 3.48537L27.94 3.52572L27.6421 3.56901L27.3445 3.6152L27.0479 3.66422L26.7515 3.71617L26.4566 3.77081L26.1613 3.82851L25.8681 3.88881L25.5745 3.95216L25.2823 4.01819L24.9905 4.08716L24.7 4.15877L24.4103 4.23326L24.1213 4.31052L23.8333 4.39058L23.5466 4.47332L23.2603 4.55891L22.9756 4.64715L22.6916 4.7382L22.4091 4.83177L22.1271 4.9283L21.8466 5.0274L21.5674 5.12914L21.289 5.23364L21.0121 5.34069L20.7368 5.45033L20.4621 5.56278L20.1889 5.67779L19.917 5.79542L19.6466 5.91552L19.3776 6.03824L19.1101 6.16343L18.8434 6.29138L18.5788 6.42167L18.3155 6.55449L18.0537 6.68982L17.7934 6.82766L17.535 6.96785L17.2776 7.11063L17.0219 7.25589L16.7684 7.40322L16.5157 7.55343L16.2654 7.70564L16.0167 7.86021L15.7693 8.01732L15.5238 8.17673L15.2802 8.33846L15.0388 8.50209L14.7983 8.66862L14.5603 8.83694L14.324 9.00758L14.0894 9.18056L13.8569 9.35559L13.6266 9.53273L13.3976 9.71235L13.1711 9.89369L12.9464 10.0774L12.7237 10.2631L12.503 10.451L12.2846 10.6407L12.0678 10.8327L11.8535 11.0265L11.641 11.2226L11.431 11.4202L11.2229 11.62L11.0171 11.8217L10.8134 12.0253L10.6116 12.231L10.4126 12.4381L10.2157 12.647L10.0206 12.8583L9.82826 13.071L9.63823 13.2852L9.45015 13.5017L9.2648 13.7195L9.08151 13.9392L8.90068 14.1605L8.72223 14.3835L8.54609 14.6081L8.37256 14.8341L8.20129 15.0618L8.03238 15.2913L7.86619 15.5219L7.70222 15.7544L7.54086 15.9881L7.382 16.2233L7.22552 16.46L7.07169 16.698L6.92037 16.9373L6.7716 17.178L6.62548 17.42L6.48177 17.6634L6.34064 17.9083L6.20228 18.1539L6.06641 18.401L5.93313 18.6494L5.80256 18.8988L5.67456 19.1495L5.5493 19.401L5.42666 19.6538L5.30672 19.9076L5.1894 20.1626L5.07485 20.4183L4.9629 20.6753L4.85369 20.9331L4.74727 21.1917L4.64351 21.4514L4.54247 21.7119L4.44421 21.9732L4.34867 22.2354L4.25595 22.4982L4.1659 22.7621L4.07865 23.0266L3.9942 23.2917L3.91254 23.5574L3.8336 23.8241L3.75751 24.0911L3.6842 24.3588L3.61367 24.627L3.54596 24.896L3.48106 25.1652L3.41898 25.4351L3.3597 25.7054L3.30325 25.9762L3.24963 26.2472L3.19881 26.5187L3.15084 26.7905L3.10569 27.0627L3.06338 27.3351L3.02389 27.6078L2.98725 27.8808L2.95343 28.154L2.92244 28.4273L2.8943 28.7009L2.869 28.9745L2.84652 29.2481L2.82689 29.522L2.81009 29.7959L2.79612 30.0696L2.78498 30.3435L2.77667 30.6173L2.77121 30.891L2.76855 31.1646L2.76873 31.4382L2.77172 31.7115L2.77754 31.9848L2.78616 32.2578L2.7976 32.5306L2.81186 32.8031L2.82889 33.0752L2.84874 33.3471L2.87139 33.6186L2.89682 33.8898L2.92503 34.1608L2.95602 34.431L2.98978 34.701L3.02631 34.9704L3.0656 35.2394L3.10765 35.5079L3.15243 35.7756L3.19996 36.0429L3.25022 36.3096L3.30319 36.5756L3.35889 36.8411L3.41729 37.1057L3.47839 37.3697L3.54218 37.6329L3.60864 37.8954L3.6778 38.1572L3.74958 38.4179L3.82405 38.678L3.90115 38.9372L3.98088 39.1955L4.06323 39.4529L4.14817 39.7092L4.23572 39.9647L4.32587 40.2191L4.41859 40.4726L4.51385 40.7249L4.61171 40.9763L4.71206 41.2265L4.81494 41.4756L4.92037 41.7236L5.02826 41.9703L5.13867 42.216L5.25154 42.4605L5.36687 42.7037L5.48463 42.9456L5.60485 43.1862L5.72746 43.4256L5.85249 43.6637L5.97989 43.9004L6.10967 44.1357L6.2418 44.3696L6.37627 44.6021L6.51307 44.8332L6.65219 45.0627L6.79353 45.2909L6.93725 45.5175L7.08315 45.7425L7.23134 45.9662L7.38174 46.1882L7.53432 46.4086L7.6891 46.6274L7.84609 46.8446L8.00518 47.0601L8.16646 47.2741L8.32978 47.4861L8.49529 47.6966L8.66279 47.9052L8.83239 48.1122L9.00408 48.3176L9.17769 48.521L9.35337 48.7226L9.53099 48.9224L9.71064 49.1204L9.89218 49.3164L10.0756 49.5107L10.261 49.703L10.4482 49.8935L10.6374 50.082L10.8283 50.2685L11.0211 50.4531L11.2156 50.6357L11.412 50.8164L11.6101 50.9951L11.8099 51.1716L12.0114 51.3461L12.2147 51.5186L12.4196 51.689L12.626 51.8573L12.8343 52.0236L13.044 52.1876L13.2553 52.3496L13.4681 52.5095L13.6826 52.6671L13.8985 52.8225L14.1158 52.9758L14.3346 53.1269L14.555 53.2758L14.7766 53.4224L14.9998 53.5668L15.2241 53.709L15.45 53.8488L15.6772 53.9865L15.9054 54.1218L16.1352 54.2549L16.366 54.3855L16.5981 54.5139L16.8314 54.6399L17.066 54.7637L17.3015 54.885L17.5382 55.0042L17.7761 55.1207L18.015 55.235L18.2549 55.3469L18.4959 55.4564L18.7377 55.5633L18.9807 55.668L19.2246 55.7702L19.4694 55.8701L19.715 55.9674L19.9616 56.0622L20.209 56.1548L20.457 56.2448L20.706 56.3322L20.9558 56.4173L21.2063 56.5L21.4575 56.58L21.7091 56.6576L21.9618 56.7327L22.2148 56.8053L22.4686 56.8754L22.723 56.943L22.9778 57.0081L23.2333 57.0707L23.489 57.1307L23.7455 57.1883L24.0023 57.2432L24.2594 57.2957L24.5171 57.3456L24.7751 57.393L25.0334 57.4379L25.292 57.4802L25.5509 57.52L25.8101 57.5572L26.0696 57.5918L26.3292 57.624L26.589 57.6536L26.8489 57.6806L27.1091 57.7052L27.3693 57.7271L27.6296 57.7466L27.8899 57.7634L28.1503 57.7778L28.4105 57.7895L28.6708 57.7988L28.9311 57.8055L29.1914 57.8096L29.4513 57.8112L29.7113 57.8103L29.9711 57.8069L30.2306 57.801L30.49 57.7925L30.7492 57.7815L31.0081 57.768L31.2666 57.752L31.5249 57.7335L31.7829 57.7125L32.0404 57.689L32.2975 57.6629L32.5543 57.6344L32.8105 57.6035L33.0664 57.57L33.3217 57.534L33.5765 57.4956L33.8307 57.4548L34.0845 57.4115L34.3377 57.3657L34.5901 57.3176L34.8419 57.267L35.0931 57.2139L35.3435 57.1586L35.5932 57.1007L35.8423 57.0404L36.0905 56.9779L36.3379 56.9127L36.5845 56.8454L36.8304 56.7756L37.0752 56.7035L37.3194 56.6291L37.5624 56.5524L37.8047 56.4732L38.0459 56.3919L38.286 56.3083L38.5254 56.2221L38.7636 56.1339L39.0008 56.0433L39.2369 55.9506L39.4718 55.8557L39.7056 55.7584L39.9384 55.6589L40.1699 55.5572L40.4001 55.4534L40.6294 55.3473L40.8574 55.239L41.084 55.1288L41.3095 55.0161L41.5335 54.9016L41.7563 54.7848L41.9779 54.6659L42.1978 54.545L42.4166 54.422L42.6338 54.297L42.85 54.1698L43.0642 54.0408L43.2774 53.9096L43.4888 53.7765L43.6987 53.6414L43.9073 53.5043L44.1144 53.3651L44.3196 53.2244L44.5234 53.0814L44.7256 52.9367L44.9262 52.7901L45.1253 52.6415L45.3224 52.4913L45.5184 52.3389L45.7122 52.185L45.9043 52.0293L46.0951 51.8717L46.2839 51.7122L46.4708 51.5513L46.6561 51.3884L46.8395 51.224L47.0212 51.0578L47.2011 50.8899L47.3789 50.7206L47.5552 50.5493L47.7295 50.3765L47.9019 50.2022L48.0724 50.0263L48.2408 49.8489L48.4073 49.6701L48.5723 49.4892L48.7348 49.3074L48.8957 49.1238L49.0543 48.939L49.2111 48.7526L49.3657 48.5649L49.5183 48.3758L49.6691 48.1851L49.8176 47.9935L49.9642 47.8001L50.1085 47.6057L50.2509 47.4098L50.3914 47.2125L50.5292 47.0145L50.6653 46.8149L50.799 46.6143L50.9307 46.4123L51.0604 46.209L51.1876 46.005L51.3127 45.7999L51.4358 45.593L51.5564 45.3858L51.6749 45.1772L51.7914 44.9675L51.9053 44.7572L52.0172 44.5454L52.1269 44.3327L52.234 44.1199L52.3391 43.9052L52.442 43.6898L52.5424 43.4738L52.6406 43.2569L52.7365 43.0391L52.8301 42.8207L52.9214 42.6011L53.0104 42.3809L53.097 42.1605L53.1813 41.9385L53.2631 41.7165L53.3429 41.4935L53.4202 41.27L53.4952 41.0457L53.5675 40.8215L53.6379 40.5956L53.7056 40.37L53.771 40.1436L53.8341 39.917L53.8948 39.6894L53.953 39.4619L54.009 39.2336L54.0625 39.0048L54.1137 38.7759L54.1625 38.5464L54.2087 38.3171L54.2527 38.0867L54.2942 37.8569L54.3334 37.6262L54.3701 37.3953L54.4044 37.1645L54.4364 36.9332L54.4658 36.7022L54.493 36.4701L54.5176 36.239L54.54 36.0071L54.5598 35.7756L54.5773 35.5434L54.5924 35.3121L54.6051 35.0801L54.6154 34.8479L54.6232 34.6163L54.6288 34.3851L54.6318 34.1531L54.6326 33.9215L54.6309 33.6902L54.6269 33.459L54.6204 33.2279L54.6115 32.9977L54.6003 32.7665L54.5867 32.5364L54.5707 32.3063L54.5524 32.0769L54.5317 31.8471L54.5087 31.6184L54.4834 31.3895L54.4556 31.1614L54.4255 30.9333L54.3932 30.7061L54.3583 30.4787L54.3213 30.2523L54.282 30.0267L54.2403 29.801L54.1962 29.576L54.15 29.3519L54.1013 29.1276L54.0507 28.905L53.9974 28.6821L53.9423 28.4607L53.8844 28.239L53.8246 28.019L53.7625 27.7992L53.6982 27.5799L53.6317 27.362L53.563 27.1448L53.4918 26.9277L53.4189 26.7123L53.3433 26.4971L53.266 26.2832L53.1862 26.0697L53.1045 25.8578L53.0204 25.6461L52.9343 25.4357L52.8462 25.2266L52.756 25.0184L52.6633 24.8105L52.5692 24.6045L52.4724 24.3988L52.3739 24.1949L52.2733 23.9918L52.1704 23.7894L52.0659 23.5887L51.9591 23.3889L51.8502 23.19L51.7399 22.9931L51.6271 22.7966L51.5125 22.6018L51.3958 22.4078L51.2777 22.2158L51.157 22.0243L51.0349 21.8345L50.9106 21.6456L50.7846 21.4584L50.657 21.2729L50.5271 21.0881L50.3955 20.9049L50.2623 20.7231L50.1271 20.543L49.9902 20.3639L49.8515 20.1866L49.7112 20.0105L49.5691 19.8361L49.4253 19.6631L49.2796 19.4915L49.1324 19.3215L48.9836 19.1531L48.8333 18.9863L48.6812 18.821L48.5271 18.657L48.3722 18.4953L48.2148 18.3345L48.0567 18.176L47.8967 18.0186L47.7354 17.8632L47.572 17.709L47.4079 17.5572L47.2417 17.4067L47.0742 17.2578L46.9058 17.111L46.7357 16.9658L46.5637 16.8219L46.3907 16.6802L46.2165 16.5402L46.0409 16.4021L45.8638 16.2656L45.6859 16.1313L45.506 15.9981L45.3255 15.8675L45.1434 15.7385L44.9601 15.6111L44.7759 15.4859L44.5898 15.3621L44.4037 15.2409L44.2155 15.1211L44.0267 15.0033L43.8363 14.8874L43.6453 14.7734L43.4531 14.6615L43.2602 14.5517L43.0655 14.4432L42.8708 14.3373L42.6744 14.2331L42.4773 14.1309L42.2794 14.0309L42.0803 13.9326L41.8805 13.8363L41.6799 13.7423L41.4782 13.65L41.2761 13.5601L41.0729 13.4718L40.8625 13.383L40.6646 13.3019L40.4587 13.2197L40.2532 13.14L40.0459 13.0619L39.8387 12.9863L39.6305 12.9125L39.4219 12.8409L39.2124 12.7712L39.0027 12.7038L38.7921 12.6384L38.5811 12.5752L38.3699 12.5141L38.1579 12.4549L37.945 12.3978L37.7325 12.343L37.5195 12.2903L37.3052 12.2395L37.0916 12.1911L36.8769 12.1446L36.6623 12.1004L36.4469 12.0581L36.2318 12.0181L36.016 11.9801L35.8005 11.9444L35.5839 11.9106L35.3679 11.8791L35.1514 11.8497L34.9346 11.8224L34.7179 11.7972L34.5011 11.7742L34.2842 11.7533L34.0671 11.7345L33.8499 11.7179L33.6325 11.7033L33.4158 11.6909L33.1989 11.6806L32.9812 11.6725L32.7647 11.6664L32.5478 11.6625L32.331 11.6607L32.114 11.661L32.0705 11.6615L32.1389 17.3948L32.262 17.3942L32.4205 17.3951L32.5789 17.3975L32.7375 17.4016L32.8963 17.4071L33.0551 17.4143L33.2138 17.423L33.3727 17.4332L33.5316 17.445L33.6905 17.4584L33.8495 17.4734L34.0082 17.4899L34.1671 17.5081L34.3259 17.5277L34.4845 17.5488L34.6431 17.5718L34.8016 17.5961L34.9599 17.622L35.1182 17.6496L35.2762 17.6787L35.434 17.7095L35.5917 17.7417L35.7493 17.7755L35.9065 17.8109L36.0635 17.8479L36.2203 17.8865L36.3766 17.9265L36.5328 17.9683L36.6887 18.0114L36.8443 18.0563L36.9996 18.1026L37.1544 18.1505L37.3088 18.2L37.4629 18.251L37.6166 18.3036L37.7698 18.3578L37.9227 18.4134L38.0749 18.4706L38.2269 18.5294L38.3783 18.5897L38.5292 18.6515L38.6795 18.7149L38.8293 18.7797L38.9786 18.8462L39.1272 18.914L39.2752 18.9834L39.4228 19.0544L39.5696 19.1268L39.7159 19.2008L39.8615 19.2762L40.0063 19.353L40.1506 19.4315L40.2941 19.5113L40.4368 19.5926L40.579 19.6754L40.7204 19.7597L40.8609 19.8453L41.0006 19.9325L41.1396 20.0211L41.2778 20.1111L41.4151 20.2025L41.5516 20.2953L41.6873 20.3897L41.822 20.4852L41.9559 20.5823L42.0888 20.6808L42.221 20.7806L42.3519 20.8818L42.4821 20.9844L42.6113 21.0882L42.7395 21.1936L42.8667 21.3002L42.993 21.408L43.1182 21.5172L43.2424 21.6278L43.3655 21.7397L43.4874 21.8528L43.6084 21.9672L43.7282 22.0829L43.8469 22.1999L43.9646 22.3181L44.0811 22.4376L44.1965 22.5582L44.3105 22.6802L44.4235 22.8033L44.5353 22.9277L44.6459 23.0531L44.7552 23.1798L44.8634 23.3076L44.9703 23.4366L45.0759 23.5668L45.1803 23.6981L45.2833 23.8305L45.3851 23.9641L45.4856 24.0987L45.5847 24.2344L45.6826 24.3711L45.7789 24.509L45.8741 24.6479L45.9677 24.7878L46.06 24.9287L46.151 25.0708L46.2406 25.2137L46.3288 25.3575L46.4155 25.5024L46.5007 25.6484L46.5845 25.7951L46.6668 25.9429L46.7476 26.0915L46.8271 26.241L46.905 26.3915L46.9813 26.5428L47.0563 26.6951L47.1297 26.8481L47.2014 27.0018L47.2717 27.1566L47.3404 27.312L47.4076 27.4683L47.4732 27.6254L47.5372 27.7832L47.5996 27.9417L47.6603 28.1009L47.7195 28.2609L47.7771 28.4216L47.8331 28.583L47.8875 28.745L47.9401 28.9077L47.9911 29.0709L48.0405 29.2349L48.0883 29.3994L48.1343 29.5646L48.1786 29.7303L48.2213 29.8965L48.2623 30.0634L48.3016 30.2306L48.3392 30.3984L48.375 30.5667L48.4091 30.7355L48.4414 30.9047L48.4721 31.0745L48.5011 31.2446L48.5283 31.415L48.5537 31.586L48.5774 31.7571L48.5993 31.9287L48.6195 32.1008L48.6378 32.2731L48.6544 32.4457L48.6694 32.6186L48.6824 32.7917L48.6937 32.9651L48.7031 33.1386L48.7108 33.3125L48.7167 33.4866L48.7207 33.6608L48.723 33.8352L48.7235 34.0098L48.7221 34.1845L48.7189 34.3592L48.7139 34.5341L48.7071 34.7092L48.6985 34.884L48.6881 35.0591L48.6759 35.2343L48.6618 35.4093L48.6458 35.5844L48.6281 35.7594L48.6085 35.9343L48.5872 36.1094L48.5639 36.2841L48.5389 36.4589L48.512 36.6335L48.4833 36.8079L48.4528 36.9823L48.4203 37.1564L48.3862 37.3304L48.35 37.5041L48.3121 37.6776L48.2725 37.8509L48.231 38.0238L48.1877 38.1965L48.1425 38.369L48.0955 38.541L48.0467 38.7128L47.9961 38.8841L47.9437 39.0551L47.8895 39.2258L47.8333 39.396L47.7754 39.5657L47.7158 39.7351L47.6544 39.9039L47.5911 40.0722L47.526 40.2401L47.4593 40.4075L47.3907 40.5743L47.3203 40.7407L47.2481 40.9062L47.1742 41.0714L47.0985 41.236L47.0211 41.3997L46.9419 41.5629L46.8609 41.7255L46.7782 41.8874L46.6937 42.0486L46.6076 42.209L46.5197 42.3687L46.4301 42.5277L46.3389 42.686L46.2458 42.8433L46.1511 43.0001L46.0548 43.1558L45.9567 43.3109L45.8569 43.4649L45.7555 43.6182L45.6523 43.7705L45.5477 43.922L45.4413 44.0726L45.3333 44.2221L45.2236 44.3708L45.1125 44.5185L44.9996 44.6652L44.8851 44.8109L44.7691 44.9555L44.6515 45.0992L44.5323 45.2417L44.4116 45.3833L44.2892 45.5237L44.1654 45.663L44.04 45.8012L43.9131 45.9383L43.7847 46.0742L43.6549 46.209L43.5235 46.3425L43.3907 46.475L43.2563 46.6061L43.1206 46.7361L42.9833 46.8648L42.8448 46.9922L42.7048 47.1185L42.5633 47.2433L42.4205 47.3669L42.2762 47.4893L42.1308 47.6102L41.9838 47.7299L41.8356 47.8481L41.6859 47.9649L41.535 48.0804L41.3829 48.1946L41.2294 48.3072L41.0746 48.4185L40.9187 48.5285L40.7615 48.6368L40.603 48.7437L40.4432 48.8492L40.2823 48.9532L40.1202 49.0556L39.9571 49.1565L39.7926 49.2558L39.6272 49.3538L39.4604 49.4501L39.2928 49.5447L39.1239 49.6379L38.9539 49.7295L38.7829 49.8195L38.6109 49.9079L38.4378 49.9946L38.2638 50.0796L38.0887 50.1632L37.9126 50.2449L37.7355 50.3251L37.5576 50.4035L37.3787 50.4803L37.1988 50.5553L37.0182 50.6287L36.8366 50.7003L36.6541 50.7702L36.4709 50.8385L36.2867 50.9049L36.1018 50.9696L35.916 51.0324L35.7296 51.0936L35.5423 51.1529L35.3544 51.2105L35.1658 51.2663L34.9763 51.3201L34.7863 51.3723L34.5955 51.4226L34.4041 51.4711L34.2121 51.5177L34.0195 51.5625L33.8262 51.6054L33.6325 51.6465L33.4381 51.6857L33.2433 51.723L33.048 51.7586L32.852 51.7922L32.6557 51.8238L32.459 51.8535L32.2617 51.8814L32.064 51.9074L31.8659 51.9315L31.6676 51.9536L31.4688 51.9738L31.2697 51.9921L31.0703 52.0085L30.8706 52.0229L30.6706 52.0353L30.4703 52.0458L30.2699 52.0544L30.0691 52.061L29.8682 52.0657L29.6672 52.0683L29.4658 52.0691L29.2645 52.0679L29.0631 52.0646L28.8615 52.0595L28.6598 52.0523L28.4581 52.0431L28.2563 52.032L28.0547 52.019L27.8529 52.004L27.6512 51.9869L27.4495 51.9678L27.2479 51.9468L27.0464 51.9239L26.845 51.899L26.6437 51.872L26.4426 51.843L26.2417 51.8121L26.0409 51.7793L25.8403 51.7443L25.64 51.7076L25.44 51.6687L25.2403 51.6278L25.0408 51.5851L24.8417 51.5403L24.6429 51.4935L24.4444 51.4448L24.2464 51.3941L24.0487 51.3414L23.8514 51.2868L23.6547 51.2303L23.4583 51.1718L23.2624 51.1113L23.0671 51.0488L22.8724 50.9844L22.678 50.9181L22.4843 50.8499L22.2913 50.7797L22.0987 50.7075L21.9068 50.6334L21.7156 50.5575L21.525 50.4795L21.3351 50.3997L21.146 50.3181L20.9576 50.2344L20.7698 50.1489L20.583 50.0616L20.3969 49.9724L20.2115 49.8812L20.027 49.7882L19.8434 49.6934L19.6606 49.5966L19.4788 49.4981L19.2978 49.3977L19.1178 49.2954L18.9386 49.1915L18.7605 49.0856L18.5833 48.9779L18.4072 48.8685L18.2321 48.7572L18.0581 48.6443L17.8851 48.5294L17.7132 48.4128L17.5424 48.2946L17.3728 48.1746L17.2042 48.0528L17.0368 47.9294L16.8705 47.8041L16.7055 47.6772L16.5418 47.5487L16.3793 47.4183L16.2179 47.2865L16.0578 47.1528L15.8991 47.0177L15.7417 46.8807L15.5855 46.7423L15.4306 46.6022L15.2773 46.4606L15.1252 46.3173L14.9745 46.1724L14.8252 46.026L14.6775 45.8781L14.5311 45.7286L14.3861 45.5777L14.2426 45.4251L14.1007 45.2712L13.9603 45.1157L13.8213 44.9588L13.684 44.8004L13.548 44.6406L13.4139 44.4794L13.2811 44.3166L13.1501 44.1527L13.0207 43.9872L12.8929 43.8204L12.7668 43.6523L12.6421 43.4829L12.5193 43.3121L12.3983 43.14L12.2789 42.9666L12.1612 42.792L12.0453 42.6162L11.9311 42.4391L11.8187 42.2607L11.708 42.0812L11.5992 41.9004L11.4921 41.7186L11.3869 41.5355L11.2835 41.3514L11.182 41.166L11.0823 40.9797L10.9845 40.7922L10.8885 40.6037L10.7945 40.4141L10.7024 40.2234L10.6122 40.0319L10.5239 39.8391L10.4375 39.6456L10.3532 39.4511L10.2707 39.2555L10.1903 39.0592L10.1118 38.8619L10.0354 38.6636L9.96093 38.4645L9.88848 38.2647L9.81807 38.0639L9.74971 37.8624L9.68338 37.6601L9.6191 37.457L9.5569 37.2533L9.49676 37.0487L9.43871 36.8435L9.38275 36.6375L9.3289 36.4308L9.27714 36.2237L9.22749 36.0158L9.17999 35.8073L9.13459 35.5982L9.09135 35.3886L9.05024 35.1785L9.01129 34.9678L8.97449 34.7565L8.93987 34.5449L8.9074 34.3328L8.87712 34.1203L8.84902 33.9072L8.82312 33.6938L8.7994 33.48L8.77787 33.266L8.75855 33.0515L8.74146 32.8367L8.72656 32.6217L8.71387 32.4063L8.70342 32.1908L8.69519 31.9751L8.68919 31.7591L8.68541 31.5429L8.68387 31.3265L8.68458 31.11L8.68751 30.8934L8.69271 30.6768L8.70013 30.4601L8.70981 30.2432L8.72174 30.0264L8.73591 29.8095L8.75235 29.5928L8.77102 29.3759L8.79195 29.1593L8.81516 28.9425L8.84059 28.7261L8.8683 28.5096L8.89825 28.2934L8.93046 28.0772L8.96493 27.8613L9.00163 27.6456L9.04061 27.4302L9.08183 27.215L9.1253 27L9.17101 26.7855L9.21899 26.5712L9.2692 26.3573L9.32164 26.1437L9.37633 25.9305L9.43326 25.7178L9.49241 25.5054L9.5538 25.2936L9.61743 25.0823L9.68326 24.8714L9.75132 24.6609L9.82159 24.4513L9.89407 24.242L9.96877 24.0333L10.0457 23.8253L10.1247 23.6178L10.206 23.4111L10.2895 23.205L10.3751 22.9997L10.4629 22.7951L10.5529 22.5911L10.645 22.388L10.7393 22.1856L10.8357 21.9841L10.9343 21.7833L11.035 21.5835L11.1378 21.3845L11.2428 21.1865L11.3498 20.9892L11.4589 20.793L11.5702 20.5977L11.6835 20.4033L11.7989 20.2101L11.9163 20.0178L12.0358 19.8266L12.1574 19.6364L12.281 19.4473L12.4067 19.2593L12.5341 19.0724L12.6639 18.8867L12.7955 18.702L12.929 18.5186L13.0647 18.3365L13.2021 18.1554L13.3417 17.9757L13.4831 17.7972L13.6264 17.6201L13.7716 17.4443L13.9187 17.2697L14.0678 17.0964L14.2187 16.9245L14.3714 16.7541L14.5261 16.5851L14.6825 16.4174L14.8408 16.2512L15.0009 16.0863L15.1627 15.9231L15.3263 15.7613L15.4917 15.6009L15.6589 15.4422L15.8278 15.2849L15.9983 15.1293L16.1707 14.9751L16.3447 14.8227L16.5202 14.6718L16.6975 14.5226L16.8765 14.375L17.0571 14.229L17.2392 14.0847L17.4231 13.9422L17.6084 13.8014L17.7953 13.6623L17.9838 13.525L18.1737 13.3893L18.365 13.2555L18.5581 13.1235L18.7525 12.9933L18.9483 12.8651L19.1457 12.7385L19.3443 12.6138L19.5445 12.4911L19.746 12.3701L19.9489 12.2511L20.1529 12.134L20.3585 12.0189L20.5653 11.9056L20.7733 11.7944L20.9827 11.6851L21.1933 11.5778L21.405 11.4725L21.618 11.3692L21.8322 11.2679L22.0476 11.1686L22.2641 11.0714L22.4818 10.9763L22.7005 10.8832L22.9203 10.7923L23.1411 10.7034L23.3629 10.6166L23.5858 10.5319L23.8097 10.4494L24.0346 10.369L24.2604 10.2908L24.4872 10.2147L24.7148 10.1408L24.9432 10.0691L25.1727 9.99954L25.4029 9.93221L25.634 9.86709L25.8657 9.80418L26.0983 9.74351L26.3317 9.68507L26.5659 9.62888L26.8006 9.57495L27.0361 9.52326L27.2722 9.47386L27.5089 9.42672L27.7464 9.38189L27.9843 9.33933L28.2228 9.29907L28.4619 9.26112L28.7015 9.22548L28.9415 9.19217L29.182 9.16116L29.2717 9.15048ZM29.3732 17.6541L29.304 11.8578L29.1069 11.8852L28.895 11.9167L28.6829 11.9504L28.4722 11.9859L28.2612 12.0237L28.0512 12.0634L27.8417 12.1051L27.6329 12.1487L27.4246 12.1945L27.2168 12.2422L27.0095 12.292L26.8032 12.3437L26.597 12.3974L26.3989 12.4511L26.1879 12.5106L25.9841 12.5702L25.7813 12.6317L25.5795 12.695L25.3781 12.7604L25.1775 12.8278L24.9778 12.8969L24.7792 12.9678L24.5813 13.0409L24.3843 13.1156L24.1881 13.1924L23.9934 13.2708L23.7987 13.3514L23.6055 13.4336L23.4132 13.5176L23.2222 13.6034L23.0318 13.6911L22.8423 13.7807L22.6546 13.8717L22.4671 13.9649L22.2816 14.0595L22.0964 14.1563L21.913 14.2542L21.73 14.3546L21.5487 14.456L21.3686 14.5593L21.1895 14.6645L21.0117 14.7711L20.8348 14.8797L20.6597 14.9895L20.4854 15.1013L20.3128 15.2145L20.1413 15.3293L19.9711 15.4458L19.8019 15.564L19.6347 15.6833L19.4684 15.8046L19.3034 15.9273L19.14 16.0515L18.978 16.1771L18.8172 16.3044L18.6581 16.433L18.5004 16.563L18.3439 16.6949L18.1894 16.8276L18.0359 16.9622L17.8839 17.0981L17.7336 17.2352L17.585 17.3736L17.4374 17.5137L17.2919 17.6547L17.1478 17.7972L17.0051 17.9412L16.8642 18.0863L16.7247 18.2328L16.587 18.3804L16.4509 18.5292L16.3163 18.6794L16.1832 18.8309L16.0524 18.9831L15.9228 19.1369L15.7948 19.2918L15.6687 19.4477L15.5444 19.6046L15.4214 19.763L15.3004 19.9221L15.1811 20.0825L15.0636 20.2439L14.9477 20.4063L14.8338 20.5695L14.7216 20.7339L14.611 20.8994L14.5022 21.0657L14.3955 21.2328L14.2905 21.401L14.1871 21.5703L14.0856 21.7402L13.9861 21.911L13.8882 22.0828L13.7924 22.2549L13.6983 22.4283L13.6059 22.6026L13.5157 22.7772L13.4272 22.953L13.3406 23.1294L13.2559 23.3063L13.1731 23.4842L13.0921 23.6625L13.0131 23.8417L12.936 24.0213L12.8609 24.2016L12.7876 24.3825L12.7162 24.5642L12.6467 24.7463L12.5793 24.9289L12.5136 25.1121L12.4502 25.2956L12.3884 25.4798L12.3287 25.6644L12.2709 25.8495L12.2151 26.0349L12.1612 26.2208L12.1094 26.4069L12.0594 26.5937L12.0114 26.7806L11.9654 26.9679L11.9214 27.1556L11.8793 27.3434L11.8392 27.5316L11.8011 27.72L11.765 27.9086L11.7308 28.0976L11.6987 28.2866L11.6684 28.4759L11.6402 28.665L11.614 28.8546L11.5897 29.0442L11.5674 29.234L11.5471 29.4237L11.5288 29.6136L11.5124 29.8035L11.498 29.9933L11.4856 30.1833L11.4752 30.3732L11.4667 30.563L11.4602 30.7527L11.4556 30.9424L11.4531 31.1319L11.4525 31.3216L11.4538 31.5108L11.4571 31.7L11.4624 31.889L11.4696 32.0777L11.4787 32.2664L11.4898 32.4548L11.5028 32.6427L11.5178 32.8307L11.5347 33.0182L11.5535 33.2054L11.5742 33.3923L11.5969 33.5789L11.6215 33.7652L11.6479 33.9509L11.6763 34.1364L11.7066 34.3212L11.7387 34.5059L11.7728 34.6901L11.8087 34.8736L11.8465 35.0568L11.8861 35.2394L11.9276 35.4216L11.9709 35.603L12.0162 35.784L12.0632 35.9645L12.1121 36.1443L12.1627 36.3234L12.2153 36.5021L12.2695 36.68L12.3257 36.8573L12.3835 37.034L12.4432 37.2098L12.5047 37.3848L12.5678 37.5593L12.6328 37.733L12.6996 37.9059L12.768 38.078L12.8381 38.2493L12.91 38.4198L12.9835 38.5895L13.0589 38.7582L13.1358 38.9262L13.2145 39.0932L13.2949 39.2594L13.3767 39.4247L13.4604 39.5889L13.5456 39.7524L13.6325 39.9149L13.721 40.0763L13.811 40.2368L13.9027 40.3962L13.9959 40.5546L14.0908 40.712L14.1871 40.8685L14.285 41.0237L14.3844 41.1779L14.4855 41.3312L14.5877 41.483L14.6918 41.634L14.7971 41.7837L14.9041 41.9324L15.0124 42.0798L15.1222 42.2261L15.2334 42.3711L15.346 42.5151L15.4599 42.6578L15.5753 42.7992L15.6921 42.9395L15.8102 43.0785L15.9297 43.2161L16.0506 43.3527L16.1726 43.4877L16.296 43.6217L16.4207 43.7541L16.5466 43.8854L16.6738 44.0153L16.8024 44.1438L16.932 44.271L17.0629 44.3969L17.1951 44.5214L17.3282 44.6444L17.4628 44.7662L17.5983 44.8863L17.735 45.0051L17.8729 45.1226L18.0119 45.2385L18.1519 45.3531L18.293 45.4661L18.4351 45.5777L18.5783 45.6878L18.7226 45.7965L18.8679 45.9036L19.014 46.0093L19.1611 46.1133L19.3093 46.2159L19.4584 46.317L19.6085 46.4166L19.7594 46.5146L19.9113 46.611L20.064 46.706L20.2174 46.7993L20.3718 46.8911L20.5271 46.9812L20.683 47.0697L20.8399 47.1567L20.9973 47.2421L21.1558 47.3259L21.3149 47.4081L21.4745 47.4885L21.6351 47.5676L21.7964 47.6449L21.9582 47.7206L22.1206 47.7946L22.2839 47.867L22.4475 47.9376L22.6118 48.0066L22.7768 48.0741L22.9423 48.1398L23.1082 48.2039L23.2748 48.2663L23.4419 48.327L23.6094 48.3861L23.7774 48.4434L23.9459 48.4992L24.1148 48.5531L24.2842 48.6054L24.4539 48.656L24.624 48.7049L24.7944 48.7521L24.9653 48.7976L25.1364 48.8415L25.3079 48.8835L25.4796 48.9239L25.6517 48.9626L25.824 48.9996L25.9965 49.0349L26.1692 49.0683L26.3423 49.1001L26.5153 49.1303L26.6887 49.1588L26.8621 49.1854L27.0356 49.2104L27.2094 49.2336L27.3831 49.2552L27.5569 49.275L27.7308 49.2932L27.9048 49.3095L28.0788 49.3242L28.2528 49.3372L28.4269 49.3485L28.6007 49.358L28.7746 49.3659L28.9486 49.3721L29.1223 49.3766L29.2959 49.3793L29.4694 49.3803L29.6429 49.3797L29.8161 49.3773L29.9892 49.3734L30.162 49.3677L30.3348 49.3604L30.5072 49.3512L30.6794 49.3406L30.8513 49.3281L31.0231 49.314L31.1944 49.2983L31.3655 49.2809L31.5363 49.2618L31.7067 49.2411L31.8768 49.2188L32.0465 49.1949L32.2158 49.1693L32.3847 49.142L32.5529 49.1132L32.7211 49.0826L32.8886 49.0505L33.0557 49.0169L33.2224 48.9815L33.3883 48.9446L33.5538 48.9062L33.7188 48.866L33.8833 48.8244L34.0472 48.7812L34.2105 48.7364L34.3732 48.6901L34.5353 48.6422L34.6966 48.5928L34.8573 48.5419L35.0176 48.4893L35.1769 48.4353L35.3357 48.3798L35.4937 48.3228L35.6509 48.2643L35.8074 48.2043L35.9632 48.1428L36.1183 48.0798L36.2725 48.0155L36.4259 47.9496L36.5786 47.8824L36.7302 47.8137L36.8813 47.7435L37.0314 47.672L37.1804 47.5993L37.329 47.5247L37.4763 47.4491L37.623 47.3718L37.7683 47.2935L37.913 47.2138L38.0568 47.1326L38.1994 47.0501L38.3412 46.9662L38.482 46.8812L38.6216 46.7948L38.7606 46.707L38.898 46.6182L39.0347 46.5279L39.1705 46.4363L39.305 46.3436L39.4382 46.2498L39.5708 46.1544L39.702 46.0583L39.8322 45.9606L39.9613 45.8618L40.0888 45.7621L40.2158 45.6608L40.3415 45.5585L40.4655 45.4553L40.5891 45.3504L40.711 45.245L40.8317 45.1385L40.9516 45.0303L41.0698 44.9217L41.187 44.8118L41.303 44.7008L41.4175 44.5889L41.5309 44.4758L41.6432 44.3618L41.7541 44.2467L41.8634 44.1308L41.9717 44.0138L42.0788 43.8959L42.1843 43.7772L42.2888 43.6572L42.3917 43.5366L42.4932 43.4151L42.5936 43.2924L42.6924 43.1694L42.79 43.0451L42.8862 42.9201L42.9811 42.7941L43.0744 42.6675L43.1663 42.5403L43.257 42.4118L43.3462 42.283L43.4339 42.1532L43.5205 42.0225L43.6051 41.8916L43.6888 41.7596L43.7708 41.6269L43.8515 41.4936L43.9305 41.3597L44.0084 41.2248L44.0844 41.09L44.1593 40.9538L44.2326 40.8174L44.3042 40.6805L44.3747 40.5425L44.4433 40.4048L44.5108 40.2656L44.5764 40.1268L44.641 39.9866L44.7036 39.8466L44.765 39.7055L44.8249 39.5645L44.883 39.4229L44.9398 39.2807L44.9951 39.138L45.0486 38.9954L45.101 38.8518L45.1514 38.7081L45.2005 38.5641L45.2481 38.4197L45.2942 38.2748L45.3387 38.1297L45.3816 37.9846L45.423 37.8387L45.4628 37.6929L45.5011 37.5467L45.5378 37.4003L45.573 37.2539L45.6067 37.1067L45.6387 36.9597L45.6694 36.8126L45.6983 36.6654L45.7258 36.518L45.7516 36.3699L45.7759 36.2225L45.7987 36.0746L45.8199 35.9265L45.8395 35.7788L45.8576 35.6307L45.8742 35.4823L45.8892 35.3348L45.9028 35.1861L45.9147 35.0381L45.925 34.8903L45.9339 34.7421L45.9412 34.5942L45.9469 34.4465L45.9511 34.2983L45.9537 34.151L45.9549 34.0031L45.9545 33.8557L45.9526 33.7082L45.9492 33.5613L45.9442 33.4142L45.9377 33.2673L45.9297 33.1211L45.9202 32.9744L45.9091 32.8281L45.8967 32.6826L45.8827 32.5367L45.8671 32.3916L45.8501 32.2463L45.8316 32.1017L45.8117 31.9572L45.7903 31.8129L45.7673 31.6692L45.743 31.526L45.7171 31.383L45.6898 31.2405L45.661 31.0979L45.6307 30.9563L45.5992 30.8151L45.5661 30.6741L45.5315 30.5334L45.4957 30.3939L45.4582 30.254L45.4196 30.1152L45.3794 29.9766L45.3378 29.8389L45.2949 29.7014L45.2505 29.5644L45.2049 29.4284L45.1579 29.2928L45.1093 29.1573L45.0597 29.0231L45.0085 28.8891L44.9561 28.7561L44.9024 28.6233L44.8472 28.4912L44.7909 28.3602L44.733 28.2294L44.6741 28.0997L44.6138 27.9707L44.5522 27.842L44.4892 27.7141L44.4253 27.5873L44.3598 27.4608L44.2933 27.3356L44.2255 27.2111L44.1563 27.0867L44.0862 26.9639L44.0146 26.8415L43.9419 26.7201L43.8679 26.5992L43.7931 26.4797L43.7167 26.3604L43.6395 26.2425L43.561 26.1254L43.4814 26.0091L43.4004 25.8935L43.3185 25.779L43.2358 25.6656L43.1515 25.5527L43.0664 25.4411L42.98 25.3302L42.893 25.2206L42.8045 25.1115L42.7151 25.0037L42.6246 24.8967L42.5332 24.7907L42.4409 24.686L42.3472 24.5819L42.253 24.4791L42.1575 24.3771L42.0614 24.2767L41.9639 24.1766L41.8658 24.078L41.7664 23.9801L41.6664 23.8836L41.5657 23.7882L41.4639 23.6937L41.361 23.6003L41.2574 23.5082L41.153 23.4171L41.0474 23.3268L40.9418 23.2383L40.8347 23.1503L40.727 23.0637L40.6186 22.9784L40.5092 22.8938L40.3992 22.8107L40.2888 22.7289L40.177 22.6479L40.0645 22.568L39.952 22.4898L39.8379 22.4123L39.724 22.3365L39.6091 22.2615L39.4934 22.1877L39.3769 22.1152L39.2603 22.044L39.1424 21.9739L39.0245 21.9051L38.9054 21.8373L38.7866 21.7712L38.6666 21.7061L38.5461 21.642L38.4251 21.5793L38.3038 21.5181L38.1817 21.4578L38.0591 21.3989L37.9363 21.3413L37.8132 21.285L37.6887 21.2297L37.5648 21.176L37.4401 21.1235L37.3147 21.072L37.1891 21.0221L37.0635 20.9735L36.9372 20.9261L36.8102 20.8797L36.6834 20.835L36.5559 20.7914L36.4281 20.7491L36.3005 20.7081L36.1722 20.6685L36.044 20.6301L35.9147 20.5929L35.7858 20.5572L35.6567 20.5227L35.5272 20.4896L35.3976 20.4576L35.2674 20.427L35.1375 20.3978L35.0076 20.3699L34.8771 20.3432L34.7463 20.3177L34.6162 20.2938L34.4853 20.271L34.3546 20.2496L34.2233 20.2293L34.0928 20.2106L33.9612 20.1929L33.8306 20.1768L33.6995 20.1618L33.5683 20.1482L33.4374 20.1359L33.3061 20.1248L33.1754 20.115L33.044 20.1066L32.9132 20.0994L32.7827 20.0936L32.6513 20.0889L32.5209 20.0856L32.3904 20.0837L32.2601 20.0829L32.1709 20.0833L32.2384 25.7463L32.2788 25.7465L32.3537 25.7475L32.4288 25.7493L32.504 25.7517L32.5792 25.7552L32.6546 25.7592L32.73 25.764L32.8055 25.7697L32.881 25.7762L32.9567 25.7834L33.0324 25.7913L33.1081 25.8L33.1839 25.8096L33.2596 25.82L33.3354 25.8311L33.4112 25.8431L33.4871 25.8558L33.5628 25.8694L33.6386 25.8837L33.7143 25.8987L33.7899 25.9148L33.8656 25.9314L33.9413 25.949L34.0167 25.9673L34.0922 25.9863L34.1676 26.0063L34.2428 26.027L34.318 26.0485L34.3931 26.0708L34.468 26.0939L34.5428 26.1179L34.6176 26.1426L34.692 26.1681L34.7665 26.1944L34.8407 26.2215L34.9147 26.2494L34.9886 26.2781L35.0623 26.3076L35.1357 26.3379L35.209 26.369L35.2821 26.4009L35.3549 26.4336L35.4275 26.4671L35.4999 26.5014L35.5719 26.5364L35.6438 26.5722L35.7153 26.609L35.7866 26.6463L35.8576 26.6846L35.9283 26.7236L35.9987 26.7633L36.0688 26.8038L36.1384 26.8451L36.2079 26.8872L36.2769 26.9301L36.3457 26.9738L36.4139 27.018L36.4819 27.0632L36.5496 27.1092L36.6168 27.1559L36.6836 27.2033L36.75 27.2514L36.816 27.3003L36.8816 27.35L36.9467 27.4004L37.0115 27.4515L37.0757 27.5034L37.1395 27.556L37.2029 27.6093L37.2657 27.6633L37.3281 27.7181L37.3901 27.7736L37.4514 27.8298L37.5123 27.8867L37.5725 27.9443L37.6325 28.0026L37.6917 28.0616L37.7505 28.1213L37.8088 28.1816L37.8663 28.2426L37.9234 28.3045L37.9799 28.3668L38.036 28.4298L38.0913 28.4936L38.1459 28.5579L38.2002 28.6229L38.2536 28.6886L38.3065 28.7549L38.3588 28.8218L38.4104 28.8894L38.4615 28.9576L38.5118 29.0264L38.5613 29.0957L38.6104 29.1657L38.6588 29.2364L38.7063 29.3076L38.7533 29.3793L38.7997 29.4518L38.8452 29.5247L38.89 29.5982L38.9341 29.6723L38.9775 29.7468L39.0202 29.822L39.0621 29.8977L39.1033 29.9739L39.1438 30.0507L39.1834 30.128L39.2224 30.2057L39.2604 30.284L39.2977 30.3629L39.3343 30.4421L39.3701 30.5219L39.4051 30.6021L39.4393 30.6828L39.4727 30.764L39.5051 30.8456L39.5369 30.9277L39.5678 31.0101L39.5979 31.0931L39.627 31.1765L39.6554 31.2602L39.6829 31.3443L39.7095 31.4289L39.7353 31.5138L39.7603 31.5992L39.7843 31.685L39.8075 31.7709L39.8299 31.8573L39.8512 31.9442L39.8717 32.0313L39.8914 32.1186L39.9101 32.2065L39.9279 32.2946L39.9447 32.3828L39.9607 32.4716L39.9758 32.5605L39.99 32.6496L40.0032 32.7392L40.0154 32.8289L40.0267 32.9189L40.0372 33.0092L40.0467 33.0997L40.0551 33.1903L40.0627 33.2811L40.0693 33.3723L40.0749 33.4636L40.0796 33.555L40.0832 33.6467L40.0861 33.7385L40.0878 33.8304L40.0887 33.9225L40.0884 34.0146L40.0873 34.107L40.0852 34.1996L40.082 34.2921L40.0779 34.3848L40.0728 34.4775L40.0668 34.5704L40.0597 34.6632L40.0515 34.7562L40.0424 34.8492L40.0325 34.9422L40.0213 35.0352L40.0092 35.1284L39.9962 35.2215L39.9822 35.3145L39.9671 35.4075L39.9509 35.5005L39.9338 35.5936L39.9157 35.6866L39.8967 35.7794L39.8764 35.8722L39.8553 35.9649L39.8332 36.0576L39.81 36.1502L39.7858 36.2427L39.7607 36.335L39.7344 36.4272L39.7072 36.5192L39.679 36.6111L39.6498 36.7029L39.6196 36.7944L39.5884 36.8859L39.5562 36.9771L39.5228 37.068L39.4885 37.1589L39.4533 37.2494L39.4171 37.3398L39.3798 37.4298L39.3415 37.5197L39.3023 37.6092L39.2619 37.6987L39.2207 37.7876L39.1784 37.8762L39.135 37.9647L39.0909 38.0528L39.0456 38.1405L38.9994 38.228L38.9521 38.315L38.9039 38.4017L38.8548 38.4881L38.8047 38.5741L38.7535 38.6597L38.7015 38.7447L38.6483 38.8296L38.5944 38.9139L38.5394 38.9978L38.4834 39.0813L38.4266 39.1643L38.3687 39.2469L38.31 39.329L38.2502 39.4106L38.1896 39.4917L38.128 39.5723L38.0654 39.6524L38.002 39.732L37.9376 39.8111L37.8724 39.8895L37.8062 39.9675L37.7391 40.0449L37.671 40.1217L37.6021 40.1979L37.5323 40.2737L37.4617 40.3487L37.3902 40.4231L37.3177 40.497L37.2444 40.5702L37.1703 40.6427L37.0953 40.7147L37.0194 40.7859L36.9426 40.8564L36.8651 40.9263L36.7867 40.9956L36.7076 41.0642L36.6275 41.132L36.5467 41.199L36.465 41.2655L36.3825 41.3312L36.2993 41.396L36.2153 41.4602L36.1305 41.5237L36.0449 41.5863L35.9586 41.6481L35.8715 41.7092L35.7837 41.7696L35.6951 41.829L35.6058 41.8878L35.5158 41.9456L35.425 42.0027L35.3334 42.059L35.2413 42.1143L35.1484 42.1688L35.0549 42.2225L34.9606 42.2753L34.8656 42.3272L34.7701 42.3783L34.6739 42.4284L34.5771 42.4778L34.4795 42.5261L34.3815 42.5737L34.2827 42.6201L34.1833 42.6657L34.0834 42.7104L33.9828 42.7541L33.8818 42.797L33.7801 42.8388L33.6779 42.8796L33.575 42.9195L33.4717 42.9585L33.3677 42.9965L33.2634 43.0335L33.1585 43.0695L33.0531 43.1045L32.9472 43.1385L32.8409 43.1714L32.7341 43.2033L32.6267 43.2344L32.519 43.2642L32.4108 43.2932L32.3022 43.3209L32.1931 43.3478L32.0836 43.3734L31.9738 43.3982L31.8635 43.4217L31.753 43.4444L31.6419 43.4658L31.5306 43.4862L31.419 43.5056L31.3069 43.5239L31.1947 43.541L31.082 43.557L30.9691 43.572L30.8558 43.586L30.7424 43.5987L30.6286 43.6103L30.5146 43.6209L30.4004 43.6302L30.2859 43.6386L30.1711 43.6457L30.0563 43.6518L29.9412 43.6568L29.8259 43.6605L29.7104 43.6631L29.5948 43.6646L29.4791 43.665L29.3633 43.6643L29.2472 43.6623L29.1311 43.6592L29.0149 43.655L28.8986 43.6496L28.7821 43.643L28.6657 43.6353L28.5492 43.6265L28.4328 43.6164L28.3161 43.6052L28.1997 43.5929L28.0831 43.5792L27.9666 43.5645L27.85 43.5486L27.7335 43.5317L27.6171 43.5134L27.5007 43.494L27.3844 43.4735L27.2683 43.4518L27.1521 43.429L27.0361 43.4048L26.9202 43.3796L26.8045 43.3531L26.689 43.3254L26.5734 43.2968L26.4582 43.2668L26.3432 43.2356L26.2282 43.2033L26.1137 43.1699L25.9992 43.1352L25.885 43.0994L25.7712 43.0625L25.6574 43.0244L25.5441 42.9851L25.431 42.9446L25.3181 42.9029L25.2057 42.8601L25.0935 42.8162L24.9817 42.771L24.8703 42.7248L24.7592 42.6774L24.6485 42.6288L24.5381 42.5792L24.4283 42.5283L24.3186 42.4763L24.2095 42.4232L24.1009 42.3689L23.9928 42.3135L23.8851 42.257L23.7778 42.1994L23.671 42.1406L23.5648 42.0807L23.4589 42.0197L23.3538 41.9576L23.2491 41.8944L23.1451 41.8301L23.0414 41.7647L22.9384 41.6982L22.836 41.6306L22.7342 41.5619L22.6331 41.4921L22.5325 41.4213L22.4325 41.3495L22.3333 41.2764L22.2346 41.2025L22.1368 41.1275L22.0395 41.0513L21.9429 40.9742L21.847 40.896L21.7519 40.8168L21.6575 40.7366L21.5638 40.6553L21.4709 40.5731L21.3788 40.4898L21.2874 40.4055L21.1967 40.3203L21.107 40.2341L21.0179 40.1469L20.9298 40.0587L20.8425 39.9697L20.756 39.8795L20.6703 39.7886L20.5856 39.6965L20.5017 39.6036L20.4186 39.5099L20.3366 39.4151L20.2554 39.3195L20.175 39.2229L20.0957 39.1254L20.0173 39.0272L19.9398 38.928L19.8632 38.828L19.7877 38.727L19.7132 38.6253L19.6397 38.5227L19.567 38.4192L19.4954 38.315L19.4249 38.21L19.3554 38.1041L19.2869 37.9974L19.2194 37.89L19.1531 37.7819L19.0877 37.6728L19.0235 37.5632L18.9604 37.4526L18.8983 37.3415L18.8372 37.2296L18.7774 37.1169L18.7187 37.0035L18.661 36.8895L18.6045 36.7749L18.5492 36.6595L18.495 36.5435L18.4419 36.4268L18.3901 36.3095L18.3394 36.1914L18.2898 36.0729L18.2415 35.9537L18.1944 35.834L18.1484 35.7135L18.1039 35.5926L18.0604 35.4711L18.0181 35.3492L17.977 35.2267L17.9373 35.1035L17.8987 34.9799L17.8614 34.8559L17.8253 34.7312L17.7906 34.6061L17.7572 34.4805L17.7249 34.3545L17.6941 34.2281L17.6644 34.1013L17.6361 33.974L17.609 33.8463L17.5833 33.7182L17.5589 33.5898L17.5357 33.461L17.514 33.3318L17.4936 33.2024L17.4744 33.0725L17.4566 32.9424L17.4403 32.812L17.4252 32.6813L17.4114 32.5502L17.399 32.4189L17.388 32.2874L17.3783 32.1557L17.37 32.0237L17.3631 31.8915L17.3575 31.7592L17.3533 31.6266L17.3506 31.4939L17.3492 31.3611L17.349 31.2281L17.3504 31.0949L17.3533 30.9617L17.3574 30.8283L17.3629 30.6948L17.3699 30.5613L17.3782 30.4278L17.3879 30.2942L17.399 30.1605L17.4116 30.0269L17.4255 29.8932L17.4409 29.7596L17.4577 29.6259L17.4758 29.4924L17.4954 29.3589L17.5164 29.2254L17.5389 29.0921L17.5626 28.9587L17.5879 28.8255L17.6146 28.6925L17.6427 28.5596L17.6722 28.4268L17.703 28.2942L17.7353 28.1619L17.769 28.0296L17.8042 27.8976L17.8407 27.7659L17.8786 27.6344L17.9179 27.503L17.9587 27.372L18.0008 27.2412L18.0444 27.1107L18.0894 26.9807L18.1357 26.8508L18.1835 26.7213L18.2326 26.5922L18.2832 26.4635L18.3351 26.3351L18.3885 26.207L18.4431 26.0795L18.4992 25.9523L18.5567 25.8255L18.6155 25.6992L18.6758 25.5734L18.7372 25.4481L18.8002 25.3232L18.8644 25.1988L18.9301 25.0751L18.9971 24.9518L19.0655 24.8291L19.1351 24.7068L19.2061 24.5852L19.2785 24.4643L19.3522 24.3438L19.4271 24.224L19.5035 24.1049L19.5812 23.9862L19.66 23.8683L19.7403 23.7512L19.8218 23.6346L19.9046 23.5188L19.9887 23.4038L20.0741 23.2893L20.1606 23.1756L20.2486 23.0628L20.3377 22.9506L20.4282 22.8393L20.5199 22.7286L20.6126 22.619L20.7067 22.5099L20.802 22.4018L20.8986 22.2945L20.9963 22.188L21.0952 22.0826L21.1954 21.9779L21.2967 21.8741L21.3991 21.7712L21.5028 21.6692L21.6076 21.5681L21.7135 21.468L21.8206 21.3689L21.9287 21.2706L22.038 21.1734L22.1484 21.0771L22.26 20.982L22.3726 20.8877L22.4863 20.7945L22.6009 20.7024L22.7168 20.6112L22.8336 20.5212L22.9515 20.4323L23.0704 20.3444L23.1904 20.2575L23.3114 20.1719L23.4333 20.0873L23.5562 20.0037L23.6802 19.9214L23.805 19.8402L23.9308 19.7603L24.0577 19.6814L24.1854 19.6037L24.3141 19.5272L24.4435 19.4519L24.574 19.3778L24.7053 19.3049L24.8375 19.2332L24.9706 19.1628L25.1044 19.0937L25.2391 19.0257L25.3746 18.9591L25.511 18.8937L25.6482 18.8297L25.7861 18.7668L25.9248 18.7053L26.0642 18.6452L26.2045 18.5863L26.3455 18.5286L26.487 18.4725L26.6295 18.4176L26.7725 18.3641L26.9162 18.3119L27.0606 18.2612L27.2057 18.2117L27.3513 18.1637L27.4977 18.117L27.6445 18.0717L27.7921 18.028L27.9402 17.9855L28.0888 17.9445L28.238 17.9049L28.3877 17.8667L28.538 17.8299L28.6888 17.7947L28.8401 17.761L28.9918 17.7285L29.1441 17.6976L29.2966 17.6682L29.3732 17.6541ZM31.2492 28.5446L29.5081 28.9577L29.4059 20.3934L29.3238 20.4117L29.2003 20.4407L29.0769 20.4708L28.9543 20.502L28.832 20.5344L28.7104 20.568L28.5888 20.603L28.4684 20.6387L28.3477 20.6759L28.2285 20.7138L28.109 20.7533L27.9903 20.7938L27.8722 20.8354L27.7545 20.8779L27.6379 20.9216L27.5214 20.9666L27.4056 21.0125L27.2905 21.0594L27.1755 21.1077L27.0621 21.1567L26.9486 21.207L26.8362 21.2582L26.724 21.3107L26.6128 21.3639L26.502 21.4184L26.3923 21.4737L26.2831 21.5301L26.1746 21.5876L26.0669 21.6459L25.9598 21.7053L25.8535 21.7658L25.7483 21.827L25.6431 21.8895L25.5391 21.9527L25.4361 22.0169L25.3337 22.082L25.2319 22.1481L25.1311 22.2152L25.0311 22.2831L24.9319 22.3518L24.8337 22.4214L24.736 22.4921L24.6393 22.5636L24.5435 22.6359L24.4485 22.7092L24.3546 22.7829L24.2615 22.8578L24.1691 22.9335L24.0775 23.0102L23.9872 23.0873L23.8976 23.1654L23.8089 23.2442L23.7212 23.3238L23.6343 23.4044L23.5485 23.4855L23.4636 23.5673L23.3795 23.6501L23.2966 23.7333L23.2145 23.8175L23.1336 23.9021L23.0532 23.9879L22.9742 24.0739L22.8961 24.1607L22.8189 24.2483L22.7429 24.3362L22.6677 24.4251L22.5938 24.5142L22.5206 24.6045L22.4487 24.695L22.3775 24.7864L22.3076 24.8783L22.2387 24.9705L22.1707 25.0634L22.104 25.1568L22.0381 25.251L21.9733 25.3455L21.9097 25.4408L21.8472 25.5362L21.7857 25.6322L21.7251 25.7289L21.6659 25.8258L21.6075 25.9236L21.5504 26.0213L21.4942 26.1198L21.439 26.2187L21.3853 26.3179L21.3324 26.4174L21.2807 26.5175L21.23 26.6181L21.1806 26.7186L21.1321 26.82L21.0848 26.9214L21.0387 27.0233L20.9936 27.1254L20.9496 27.2281L20.9069 27.3306L20.8652 27.4338L20.8247 27.5372L20.7851 27.6409L20.7469 27.7445L20.7097 27.8487L20.6736 27.9531L20.6387 28.0577L20.6049 28.1624L20.5723 28.2675L20.5407 28.3727L20.5105 28.4778L20.4812 28.5834L20.4529 28.6892L20.426 28.7949L20.4002 28.9009L20.3754 29.0069L20.3519 29.1131L20.3295 29.2194L20.3082 29.3256L20.288 29.432L20.2689 29.5386L20.2511 29.645L20.2344 29.7515L20.2186 29.8583L20.2041 29.9646L20.1909 30.0714L20.1786 30.1778L20.1674 30.2845L20.1575 30.3912L20.1486 30.4976L20.1409 30.6041L20.1342 30.7106L20.1286 30.8168L20.1242 30.923L20.1209 31.029L20.1188 31.1352L20.1176 31.2411L20.1177 31.3469L20.1188 31.4525L20.1211 31.5581L20.1244 31.6634L20.1288 31.7685L20.1342 31.8735L20.1409 31.9782L20.1486 32.0828L20.1573 32.1872L20.1671 32.2913L20.178 32.3954L20.1899 32.4988L20.2029 32.6024L20.217 32.7053L20.2322 32.8083L20.2484 32.9108L20.2656 33.0131L20.2839 33.1152L20.3032 33.2168L20.3236 33.3182L20.3449 33.419L20.3674 33.5198L20.3909 33.62L20.4153 33.7201L20.4407 33.8193L20.4673 33.9188L20.4946 34.0173L20.523 34.1159L20.5525 34.2137L20.5828 34.3113L20.6143 34.4084L20.6466 34.5048L20.68 34.6013L20.7143 34.697L20.7495 34.7921L20.7856 34.887L20.8227 34.9814L20.8608 35.0751L20.8998 35.1684L20.9395 35.2612L20.9804 35.3535L21.0221 35.4454L21.0647 35.5365L21.1082 35.6271L21.1525 35.7171L21.1979 35.807L21.2439 35.8958L21.2908 35.9841L21.3387 36.072L21.3875 36.1592L21.4371 36.2459L21.4874 36.332L21.5386 36.4172L21.5907 36.5021L21.6434 36.5862L21.697 36.6696L21.7516 36.7526L21.8067 36.8348L21.8627 36.9165L21.9194 36.9971L21.9769 37.0775L22.0352 37.157L22.0942 37.2357L22.1541 37.314L22.2145 37.3914L22.2757 37.4681L22.3377 37.5441L22.4003 37.6196L22.4635 37.694L22.5277 37.7679L22.5923 37.8411L22.6576 37.9134L22.7239 37.9851L22.7904 38.0558L22.8577 38.1261L22.9257 38.1954L22.9941 38.264L23.0635 38.3318L23.1333 38.3988L23.2037 38.4651L23.2747 38.5305L23.3463 38.5952L23.4185 38.6591L23.4911 38.7221L23.5644 38.7843L23.6381 38.8458L23.7124 38.9064L23.7873 38.9663L23.8629 39.0252L23.9385 39.0833L24.015 39.1406L24.0919 39.1971L24.1692 39.2528L24.247 39.3075L24.3252 39.3615L24.4039 39.4146L24.4831 39.4668L24.5626 39.5181L24.6425 39.5687L24.7231 39.6185L24.8038 39.6671L24.8849 39.7151L24.9666 39.7622L25.0483 39.8082L25.1305 39.8535L25.2135 39.8981L25.2964 39.9416L25.3796 39.9842L25.4632 40.0259L25.5473 40.0668L25.6313 40.1067L25.716 40.1459L25.8008 40.1841L25.8857 40.2213L25.9712 40.2578L26.0568 40.2933L26.1424 40.328L26.2285 40.3617L26.3148 40.3944L26.4015 40.4264L26.4879 40.4574L26.5751 40.4876L26.6619 40.5167L26.7491 40.545L26.8365 40.5725L26.9242 40.599L27.0118 40.6245L27.0995 40.6493L27.1876 40.673L27.2757 40.6959L27.3637 40.7178L27.452 40.739L27.5402 40.7591L27.6285 40.7783L27.7171 40.7967L27.8056 40.8141L27.8941 40.8308L27.9826 40.8464L28.0713 40.8612L28.1599 40.875L28.2486 40.8881L28.337 40.9001L28.4257 40.9112L28.5142 40.9216L28.6028 40.931L28.6914 40.9394L28.7799 40.947L28.8682 40.9538L28.9565 40.9596L29.0448 40.9646L29.1329 40.9686L29.2208 40.9719L29.309 40.9742L29.3966 40.9757L29.4843 40.9763L29.5719 40.976L29.6592 40.9749L29.7466 40.9728L29.8338 40.97L29.9205 40.9664L30.0072 40.9618L30.0941 40.9563L30.1802 40.95L30.2664 40.943L30.3522 40.935L30.438 40.9263L30.5235 40.9166L30.6086 40.9062L30.6938 40.895L30.7783 40.8828L30.8626 40.8699L30.9471 40.8563L31.0309 40.8417L31.1144 40.8265L31.1978 40.8102L31.2809 40.7933L31.3634 40.7756L31.4456 40.7571L31.5277 40.7378L31.6095 40.7177L31.6907 40.697L31.7717 40.6754L31.8522 40.653L31.9327 40.6298L32.0125 40.6059L32.0916 40.5813L32.1711 40.5558L32.2496 40.5297L32.3279 40.503L32.4057 40.4754L32.483 40.4471L32.5602 40.418L32.6368 40.3883L32.7128 40.3578L32.7884 40.3268L32.8637 40.2948L32.9386 40.2623L33.0126 40.2291L33.0866 40.1952L33.1599 40.1607L33.2325 40.1255L33.3051 40.0896L33.3767 40.0532L33.4481 40.016L33.519 39.978L33.5892 39.9396L33.6588 39.9007L33.7282 39.8609L33.7969 39.8205L33.8649 39.7796L33.9324 39.738L33.9995 39.6959L34.0659 39.6533L34.1319 39.6099L34.1972 39.5661L34.262 39.5216L34.3262 39.4766L34.3896 39.4311L34.4526 39.3849L34.515 39.3383L34.5768 39.291L34.638 39.2433L34.6987 39.195L34.7585 39.1464L34.8179 39.0972L34.8765 39.0474L34.9345 38.9972L34.992 38.9465L35.0488 38.8952L35.105 38.8436L35.1603 38.7915L35.2153 38.7389L35.2695 38.6858L35.3232 38.6324L35.376 38.5785L35.4281 38.5241L35.4797 38.4695L35.5307 38.4142L35.5807 38.3588L35.6304 38.3027L35.6792 38.2463L35.7272 38.1897L35.775 38.1324L35.8215 38.0751L35.8677 38.0172L35.9132 37.9592L35.9577 37.9007L36.0019 37.8418L36.0451 37.7828L36.0877 37.7231L36.1296 37.6632L36.1707 37.6034L36.2112 37.5428L36.2511 37.4822L36.2899 37.4213L36.3283 37.3601L36.3659 37.2986L36.4028 37.2368L36.439 37.1748L36.4743 37.1126L36.5091 37.0502L36.5431 36.9873L36.5763 36.9246L36.6088 36.8615L36.6407 36.7982L36.6718 36.7347L36.7021 36.6708L36.7318 36.6071L36.7606 36.543L36.7887 36.479L36.8162 36.4145L36.8428 36.3501L36.8689 36.2852L36.894 36.2208L36.9186 36.1554L36.9422 36.0911L36.9653 36.0257L36.9876 35.9603L37.0091 35.8952L37.0299 35.8298L37.05 35.7645L37.0695 35.6985L37.0879 35.6334L37.1061 35.5673L37.1231 35.5022L37.1396 35.4362L37.1553 35.3702L37.1703 35.3046L37.1845 35.2393L37.1981 35.1729L37.2109 35.1074L37.223 35.0412L37.2343 34.9758L37.245 34.9101L37.255 34.8443L37.2642 34.7785L37.2727 34.7127L37.2805 34.6474L37.2876 34.5821L37.294 34.5162L37.2997 34.451L37.3047 34.3856L37.3089 34.3203L37.3126 34.2552L37.3154 34.1903L37.3175 34.1256L37.3191 34.0605L37.32 33.9956L37.3201 33.9312L37.3195 33.8669L37.3183 33.8027L37.3163 33.7386L37.3138 33.6743L37.3104 33.6111L37.3065 33.5466L37.302 33.4838L37.2967 33.4207L37.2908 33.357L37.2842 33.2942L37.2771 33.2319L37.2691 33.1688L37.2606 33.107L37.2514 33.0447L37.2417 32.9834L37.2311 32.9214L37.2201 32.8599L37.2085 32.799L37.1962 32.7383L37.1833 32.6774L37.1697 32.6172L37.1556 32.5571L37.1408 32.4974L37.1256 32.4381L37.1094 32.3784L37.0931 32.32L37.0759 32.2608L37.0582 32.2028L37.0399 32.1447L37.021 32.0871L37.0015 32.0297L36.9814 31.9724L36.9611 31.916L36.9399 31.8597L36.9182 31.8033L36.896 31.7478L36.8731 31.692L36.85 31.6376L36.826 31.5825L36.8018 31.5284L36.7769 31.4747L36.7515 31.421L36.7257 31.3679L36.6993 31.3151L36.6724 31.2626L36.645 31.2107L36.6171 31.1591L36.5889 31.1079L36.56 31.0571L36.5305 31.0067L36.5009 30.9567L36.4707 30.9072L36.4399 30.8579L36.4088 30.8094L36.3772 30.7612L36.3452 30.7133L36.3127 30.6657L36.2799 30.6189L36.2466 30.5723L36.2129 30.5262L36.1787 30.4806L36.1441 30.4355L36.1094 30.3908L36.0739 30.3464L36.0383 30.3027L36.0022 30.2594L35.9658 30.2165L35.9289 30.174L35.8919 30.1322L35.8543 30.0908L35.8164 30.0498L35.7781 30.0092L35.7396 29.9693L35.7006 29.9298L35.6614 29.8907L35.6219 29.8523L35.5821 29.8143L35.542 29.7768L35.5013 29.7396L35.4608 29.7032L35.4197 29.667L35.3784 29.6316L35.3368 29.5965L35.2949 29.5622L35.2528 29.5281L35.2105 29.4947L35.1679 29.4617L35.125 29.4291L35.0819 29.3973L35.0386 29.3658L34.9949 29.3349L34.9513 29.3046L34.9073 29.2746L34.8632 29.2454L34.8188 29.2166L34.7741 29.1882L34.7295 29.1605L34.6843 29.1332L34.6393 29.1065L34.5942 29.0804L34.5487 29.0547L34.5029 29.0295L34.4573 29.0049L34.4115 28.9808L34.3655 28.9572L34.3195 28.9343L34.273 28.9116L34.2268 28.8897L34.1803 28.8684L34.1337 28.8474L34.0871 28.827L34.0401 28.8071L33.9936 28.7879L33.9464 28.7691L33.8993 28.7508L33.8523 28.7331L33.8052 28.7159L33.7581 28.6992L33.7108 28.683L33.6635 28.6673L33.6164 28.6523L33.569 28.6376L33.5215 28.6235L33.4744 28.61L33.4267 28.5969L33.3795 28.5845L33.3321 28.5725L33.2847 28.5609L33.2372 28.55L33.1899 28.5395L33.1425 28.5296L33.0952 28.5201L33.0481 28.5111L33.001 28.5028L32.9535 28.4948L32.9067 28.4874L32.8593 28.4805L32.8126 28.4741L32.7655 28.4681L32.7187 28.4627L32.6721 28.4577L32.6253 28.4534L32.5788 28.4493L32.5323 28.4459L32.4859 28.4429L32.4395 28.4403L32.3933 28.4384L32.3475 28.4369L32.3014 28.4357L32.2557 28.4351L32.2099 28.4349L32.1644 28.4354L32.119 28.4361L32.0738 28.4373L32.0286 28.4391L31.9839 28.4412L31.9389 28.4439L31.8945 28.4469L31.8501 28.4504L31.8058 28.4544L31.7619 28.4588L31.7178 28.4636L31.6743 28.4688L31.6308 28.4745L31.5875 28.4807L31.5443 28.4873L31.5016 28.4942L31.4589 28.5015L31.4167 28.5093L31.3743 28.5176L31.3324 28.5261L31.2906 28.5351L31.2492 28.5446Z" fill="url(#paint0_linear_612_2820)"/>
<defs>
<linearGradient id="paint0_linear_612_2820" x1="53.9373" y1="0.500002" x2="0.396416" y2="66.2327" gradientUnits="userSpaceOnUse">
<stop stop-color="#FFB800"/>
<stop offset="1" stop-color="#FFB800" stop-opacity="0"/>
</linearGradient>
</defs>
</svg>
