<svg width="28" height="28" viewBox="0 0 28 28" fill="none" xmlns="http://www.w3.org/2000/svg">
<rect width="28" height="28" rx="6" fill="#EFF422"/>
<path d="M7.43749 11.375H20.5625C20.804 11.375 21 11.179 21 10.9375C21 10.696 20.8039 10.5 20.5625 10.5H7.43749C7.19598 10.5 7 10.696 7 10.9375C7 11.179 7.19602 11.375 7.43749 11.375Z" fill="#181818"/>
<path d="M20.5625 13.5625H7.43749C7.19598 13.5625 7 13.7585 7 14C7 14.2415 7.19602 14.4375 7.43749 14.4375H20.5625C20.804 14.4375 21 14.2415 21 14C21 13.7585 20.804 13.5625 20.5625 13.5625Z" fill="#181818"/>
<path d="M20.5625 16.625H11.8125C11.571 16.625 11.375 16.821 11.375 17.0625C11.375 17.304 11.571 17.5 11.8125 17.5H20.5625C20.804 17.5 21 17.304 21 17.0625C21 16.821 20.804 16.625 20.5625 16.625Z" fill="#181818"/>
</svg>
